<svg width="32" height="30" viewBox="0 0 32 30" fill="none" xmlns="http://www.w3.org/2000/svg">
<path d="M5.64055 23.4375C7.30889 22.3375 8.96398 21.4937 10.6058 20.9062C12.2477 20.3188 14.0087 20.025 15.8889 20.025C17.7691 20.025 19.5367 20.3188 21.1918 20.9062C22.8469 21.4937 24.5086 22.3375 26.1769 23.4375C27.3421 22.0875 28.1697 20.725 28.6596 19.35C29.1495 17.975 29.3944 16.525 29.3944 15C29.3944 11.375 28.1035 8.34375 25.5215 5.90625C22.9396 3.46875 19.7287 2.25 15.8889 2.25C12.0491 2.25 8.83819 3.46875 6.25625 5.90625C3.6743 8.34375 2.38333 11.375 2.38333 15C2.38333 16.525 2.63491 17.975 3.13805 19.35C3.6412 20.725 4.47537 22.0875 5.64055 23.4375ZM15.8889 16.125C14.353 16.125 13.062 15.6312 12.016 14.6437C10.97 13.6562 10.4469 12.4375 10.4469 10.9875C10.4469 9.5375 10.97 8.31875 12.016 7.33125C13.062 6.34375 14.353 5.85 15.8889 5.85C17.4248 5.85 18.7158 6.34375 19.7618 7.33125C20.8078 8.31875 21.3308 9.5375 21.3308 10.9875C21.3308 12.4375 20.8078 13.6562 19.7618 14.6437C18.7158 15.6312 17.4248 16.125 15.8889 16.125ZM15.8889 30C13.7174 30 11.6651 29.6062 9.73194 28.8187C7.79879 28.0312 6.1106 26.9562 4.66736 25.5938C3.22412 24.2313 2.08542 22.6375 1.25125 20.8125C0.417083 18.9875 0 17.05 0 15C0 12.925 0.417083 10.9813 1.25125 9.16875C2.08542 7.35625 3.22412 5.76875 4.66736 4.40625C6.1106 3.04375 7.79879 1.96875 9.73194 1.18125C11.6651 0.39375 13.7174 0 15.8889 0C18.0868 0 20.1458 0.39375 22.0657 1.18125C23.9856 1.96875 25.6672 3.04375 27.1104 4.40625C28.5537 5.76875 29.6924 7.35625 30.5265 9.16875C31.3607 10.9813 31.7778 12.925 31.7778 15C31.7778 17.05 31.3607 18.9875 30.5265 20.8125C29.6924 22.6375 28.5537 24.2313 27.1104 25.5938C25.6672 26.9562 23.9856 28.0312 22.0657 28.8187C20.1458 29.6062 18.0868 30 15.8889 30ZM15.8889 27.75C17.3454 27.75 18.7687 27.55 20.159 27.15C21.5493 26.75 22.9197 26.05 24.2703 25.05C22.9197 24.15 21.5427 23.4625 20.1392 22.9875C18.7356 22.5125 17.3189 22.275 15.8889 22.275C14.4589 22.275 13.0421 22.5125 11.6386 22.9875C10.2351 23.4625 8.85805 24.15 7.5075 25.05C8.85805 26.05 10.2285 26.75 11.6187 27.15C13.009 27.55 14.4324 27.75 15.8889 27.75ZM15.8889 13.875C16.7893 13.875 17.5241 13.6062 18.0935 13.0687C18.6628 12.5312 18.9475 11.8375 18.9475 10.9875C18.9475 10.1375 18.6628 9.44375 18.0935 8.90625C17.5241 8.36875 16.7893 8.1 15.8889 8.1C14.9885 8.1 14.2537 8.36875 13.6843 8.90625C13.115 9.44375 12.8303 10.1375 12.8303 10.9875C12.8303 11.8375 13.115 12.5312 13.6843 13.0687C14.2537 13.6062 14.9885 13.875 15.8889 13.875Z" fill="white"/>
</svg>
