<svg width="50" height="50" viewBox="0 0 50 50" fill="none" xmlns="http://www.w3.org/2000/svg">
<path d="M23.6875 17.1875L17.1875 23.6875C16.8125 24.0625 16.625 24.5 16.625 25C16.625 25.5 16.8125 25.9375 17.1875 26.3125L23.75 32.875C24.0833 33.2083 24.5104 33.3646 25.0312 33.3438C25.5521 33.3229 25.9792 33.1458 26.3125 32.8125C26.6875 32.4375 26.875 32 26.875 31.5C26.875 31 26.6875 30.5625 26.3125 30.1875L23 26.875H32.5625C33.0625 26.875 33.4896 26.6875 33.8438 26.3125C34.1979 25.9375 34.375 25.5 34.375 25C34.375 24.4583 34.1979 24.0104 33.8438 23.6562C33.4896 23.3021 33.0417 23.125 32.5 23.125H23L26.375 19.75C26.7083 19.4167 26.8646 18.9896 26.8438 18.4687C26.8229 17.9479 26.6458 17.5208 26.3125 17.1875C25.9375 16.8125 25.5 16.625 25 16.625C24.5 16.625 24.0625 16.8125 23.6875 17.1875ZM25 0C28.5417 0 31.8333 0.635418 34.875 1.90625C37.9167 3.17709 40.5625 4.9375 42.8125 7.1875C45.0625 9.4375 46.8229 12.0833 48.0937 15.125C49.3646 18.1667 50 21.4583 50 25C50 28.5 49.3646 31.7708 48.0937 34.8125C46.8229 37.8542 45.0625 40.5 42.8125 42.75C40.5625 45 37.9167 46.7708 34.875 48.0625C31.8333 49.3542 28.5417 50 25 50C21.5 50 18.2292 49.3542 15.1875 48.0625C12.1458 46.7708 9.5 45 7.25 42.75C5 40.5 3.22916 37.8542 1.9375 34.8125C0.645832 31.7708 0 28.5 0 25C0 21.4583 0.645832 18.1667 1.9375 15.125C3.22916 12.0833 5 9.4375 7.25 7.1875C9.5 4.9375 12.1458 3.17709 15.1875 1.90625C18.2292 0.635418 21.5 0 25 0ZM25 3.75C18.9583 3.75 13.9063 5.78125 9.84375 9.84375C5.78125 13.9062 3.75 18.9583 3.75 25C3.75 31.0417 5.78125 36.0937 9.84375 40.1562C13.9062 44.2187 18.9583 46.25 25 46.25C31.0417 46.25 36.0938 44.2188 40.1562 40.1562C44.2188 36.0938 46.25 31.0417 46.25 25C46.25 18.9583 44.2188 13.9062 40.1562 9.84375C36.0938 5.78125 31.0417 3.75 25 3.75Z" fill="white"/>
</svg>
