<svg width="93" height="93" viewBox="0 0 93 93" fill="none" xmlns="http://www.w3.org/2000/svg">
<path d="M51.1255 35.4286C49.8087 35.4286 48.7056 35.0034 47.8163 34.1531C46.924 33.3058 46.4778 32.2548 46.4778 31V22.1429H37.1822C35.8653 22.1429 34.7623 21.7192 33.873 20.8719C32.9806 20.0216 32.5344 18.969 32.5344 17.7143C32.5344 16.4595 32.9806 15.407 33.873 14.5567C34.7623 13.7094 35.8653 13.2857 37.1822 13.2857H46.4778V4.42857C46.4778 3.17381 46.924 2.12129 47.8163 1.271C48.7056 0.423666 49.8087 0 51.1255 0C52.4424 0 53.547 0.423666 54.4394 1.271C55.3287 2.12129 55.7733 3.17381 55.7733 4.42857V13.2857H65.0689C66.3858 13.2857 67.4904 13.7094 68.3828 14.5567C69.272 15.407 69.7167 16.4595 69.7167 17.7143C69.7167 18.969 69.272 20.0216 68.3828 20.8719C67.4904 21.7192 66.3858 22.1429 65.0689 22.1429H55.7733V31C55.7733 32.2548 55.3287 33.3058 54.4394 34.1531C53.547 35.0034 52.4424 35.4286 51.1255 35.4286ZM27.8867 93C25.3304 93 23.1428 92.1335 21.324 90.4004C19.5021 88.6644 18.5911 86.5786 18.5911 84.1429C18.5911 81.7071 19.5021 79.6213 21.324 77.8853C23.1428 76.1522 25.3304 75.2857 27.8867 75.2857C30.4429 75.2857 32.6305 76.1522 34.4493 77.8853C36.2713 79.6213 37.1822 81.7071 37.1822 84.1429C37.1822 86.5786 36.2713 88.6644 34.4493 90.4004C32.6305 92.1335 30.4429 93 27.8867 93ZM74.3644 93C71.8082 93 69.6206 92.1335 67.8018 90.4004C65.9798 88.6644 65.0689 86.5786 65.0689 84.1429C65.0689 81.7071 65.9798 79.6213 67.8018 77.8853C69.6206 76.1522 71.8082 75.2857 74.3644 75.2857C76.9207 75.2857 79.1098 76.1522 80.9317 77.8853C82.7506 79.6213 83.66 81.7071 83.66 84.1429C83.66 86.5786 82.7506 88.6644 80.9317 90.4004C79.1098 92.1335 76.9207 93 74.3644 93ZM27.8867 70.8571C24.3234 70.8571 21.6323 69.3987 19.8135 66.4817C17.9915 63.5677 17.9714 60.6714 19.7531 57.7929L26.0276 46.9429L9.29555 13.2857H4.64778C3.33091 13.2857 2.22783 12.8606 1.33856 12.0103C0.446187 11.163 0 10.1119 0 8.85714C0 7.60238 0.446187 6.54986 1.33856 5.69957C2.22783 4.85224 3.33091 4.42857 4.64778 4.42857H12.2004C13.0525 4.42857 13.8659 4.65 14.6405 5.09286C15.4151 5.53571 15.9961 6.1631 16.3834 6.975L35.0907 44.2857H67.6252L84.241 15.6107C84.6283 14.8726 85.1907 14.2999 85.9281 13.8924C86.6625 13.488 87.4557 13.2857 88.3078 13.2857C90.0894 13.2857 91.4264 14.0238 92.3188 15.5C93.2081 16.9762 93.2267 18.4524 92.3746 19.9286L75.7588 48.4929C74.9067 49.969 73.7835 51.1131 72.3891 51.925C70.9948 52.7369 69.4068 53.1429 67.6252 53.1429H32.9992L27.8867 62H79.0122C80.3291 62 81.4322 62.4237 82.3214 63.271C83.2138 64.1213 83.66 65.1738 83.66 66.4286C83.66 67.6833 83.2138 68.7344 82.3214 69.5817C81.4322 70.432 80.3291 70.8571 79.0122 70.8571H27.8867Z" fill="#1F204D"/>
</svg>
