<svg width="43" height="24" viewBox="0 0 43 24" fill="none" xmlns="http://www.w3.org/2000/svg">
<path d="M11.952 23L6.832 14.104H4.048V23H0.4V0.759998H8.08C9.78667 0.759998 11.2267 1.05866 12.4 1.656C13.5947 2.25333 14.48 3.05333 15.056 4.056C15.6533 5.05867 15.952 6.17867 15.952 7.416C15.952 8.86667 15.5253 10.1893 14.672 11.384C13.84 12.5573 12.5493 13.3573 10.8 13.784L16.304 23H11.952ZM4.048 11.192H8.08C9.44533 11.192 10.4693 10.8507 11.152 10.168C11.856 9.48533 12.208 8.568 12.208 7.416C12.208 6.264 11.8667 5.368 11.184 4.728C10.5013 4.06667 9.46667 3.736 8.08 3.736H4.048V11.192ZM30.7628 23.224C28.6934 23.224 26.7841 22.744 25.0348 21.784C23.3068 20.8027 21.9308 19.448 20.9068 17.72C19.9041 15.9707 19.4028 14.008 19.4028 11.832C19.4028 9.656 19.9041 7.704 20.9068 5.976C21.9308 4.248 23.3068 2.904 25.0348 1.944C26.7841 0.962665 28.6934 0.471998 30.7628 0.471998C32.8534 0.471998 34.7628 0.962665 36.4908 1.944C38.2401 2.904 39.6161 4.248 40.6188 5.976C41.6214 7.704 42.1228 9.656 42.1228 11.832C42.1228 14.008 41.6214 15.9707 40.6188 17.72C39.6161 19.448 38.2401 20.8027 36.4908 21.784C34.7628 22.744 32.8534 23.224 30.7628 23.224ZM30.7628 20.056C32.2348 20.056 33.5468 19.7253 34.6988 19.064C35.8508 18.3813 36.7468 17.4213 37.3868 16.184C38.0481 14.9253 38.3788 13.4747 38.3788 11.832C38.3788 10.1893 38.0481 8.74933 37.3868 7.512C36.7468 6.27467 35.8508 5.32533 34.6988 4.664C33.5468 4.00267 32.2348 3.672 30.7628 3.672C29.2908 3.672 27.9788 4.00267 26.8268 4.664C25.6748 5.32533 24.7681 6.27467 24.1068 7.512C23.4668 8.74933 23.1468 10.1893 23.1468 11.832C23.1468 13.4747 23.4668 14.9253 24.1068 16.184C24.7681 17.4213 25.6748 18.3813 26.8268 19.064C27.9788 19.7253 29.2908 20.056 30.7628 20.056Z" fill="white"/>
</svg>
