<svg width="40" height="38" viewBox="0 0 40 38" fill="none" xmlns="http://www.w3.org/2000/svg">
<path d="M28 20.8333C25.78 20.8333 24 22.465 24 24.5V30H22C20 30 18 29.8533 16.6 28.5883L9.06 21.695C7.2 19.9716 4.66 19 2 19H0V22.6666H2C3.6 22.6666 5.12 23.2533 6.24 24.28L13.78 31.1916C19.44 36.4166 22 37.3333 28 37.3333H32C36.42 37.3333 40 34.0516 40 30V24.5C40 22.465 38.22 20.8333 36 20.8333H28ZM24 10.2H21C19.9918 10.1309 19.0496 9.71423 18.363 9.0339C17.6765 8.35356 17.2967 7.46005 17.3 6.53329C17.34 4.73663 19 3.28829 20.92 3.32496H21V0.666626C19.223 0.666626 17.5189 1.31369 16.2624 2.46548C15.0059 3.61726 14.3 5.17942 14.3 6.80829C14.3 8.43716 15.0059 9.99932 16.2624 11.1511C17.5189 12.3029 19.223 12.95 21 12.95H24C26.14 12.8766 27.92 14.4166 28 16.36V19H31V15.9933C30.9635 15.1971 30.7559 14.4154 30.3891 13.6929C30.0223 12.9704 29.5034 12.3214 28.8624 11.7832C28.2213 11.245 27.4706 10.828 26.6534 10.5563C25.8361 10.2846 24.9684 10.1635 24.1 10.2H24M36 14.8933V19H33V14.7833C33 10.75 29.42 7.44996 25 7.44996V4.69996C25.5441 4.69604 26.0807 4.58305 26.5721 4.36891C27.0635 4.15477 27.4979 3.84467 27.8447 3.46036C28.1915 3.07605 28.4424 2.62683 28.5798 2.14422C28.7172 1.66161 28.7378 1.15728 28.64 0.666626H31.58C31.78 2.49996 31.16 4.33329 29.64 5.67163H29.7C33.56 7.37663 36 10.97 36 14.8933Z" fill="white"/>
</svg>
