<svg width="26" height="30" viewBox="0 0 26 30" fill="none" xmlns="http://www.w3.org/2000/svg">
<path d="M2.38333 30C1.74778 30 1.19167 29.775 0.715 29.325C0.238333 28.875 0 28.35 0 27.75V8.25C0 7.65 0.238333 7.125 0.715 6.675C1.19167 6.225 1.74778 6 2.38333 6H6.75278V5.625C6.75278 4.05 7.32875 2.71875 8.48069 1.63125C9.63264 0.54375 11.0428 0 12.7111 0C14.3794 0 15.7896 0.54375 16.9415 1.63125C18.0935 2.71875 18.6694 4.05 18.6694 5.625V6H23.0389C23.6744 6 24.2305 6.225 24.7072 6.675C25.1839 7.125 25.4222 7.65 25.4222 8.25V27.75C25.4222 28.35 25.1839 28.875 24.7072 29.325C24.2305 29.775 23.6744 30 23.0389 30H2.38333ZM9.13611 5.625V6H16.2861V5.625C16.2861 4.675 15.9418 3.875 15.2533 3.225C14.5648 2.575 13.7174 2.25 12.7111 2.25C11.7048 2.25 10.8574 2.575 10.1689 3.225C9.48037 3.875 9.13611 4.675 9.13611 5.625ZM2.38333 27.75H23.0389V8.25H18.6694V11.625C18.6694 11.95 18.5569 12.2188 18.3318 12.4313C18.1067 12.6438 17.822 12.75 17.4778 12.75C17.1335 12.75 16.8488 12.6438 16.6237 12.4313C16.3987 12.2188 16.2861 11.95 16.2861 11.625V8.25H9.13611V11.625C9.13611 11.95 9.02356 12.2188 8.79847 12.4313C8.57338 12.6438 8.2887 12.75 7.94444 12.75C7.60018 12.75 7.31551 12.6438 7.09041 12.4313C6.86532 12.2188 6.75278 11.95 6.75278 11.625V8.25H2.38333V27.75ZM2.38333 27.75V8.25V27.75Z" fill="white"/>
</svg>
