<svg width="31" height="29" viewBox="0 0 31 29" fill="none" xmlns="http://www.w3.org/2000/svg">
<path fill-rule="evenodd" clip-rule="evenodd" d="M20.8439 17.0286L31 26.5294L28.3591 29L18.203 19.4991C16.3065 20.7759 14.02 21.5552 11.5209 21.5552C5.1578 21.5552 0 16.7301 0 10.7776C0 4.82504 5.1578 0 11.5209 0C17.8839 0 23.0417 4.82504 23.0417 10.7776C23.0417 13.1155 22.2087 15.2544 20.8439 17.0286ZM11.5209 3.31618C7.10749 3.31618 3.54488 6.64894 3.54488 10.7776C3.54488 14.9062 7.10749 18.239 11.5209 18.239C15.9342 18.239 19.4969 14.9062 19.4969 10.7776C19.4969 6.64894 15.9342 3.31618 11.5209 3.31618Z" fill="white"/>
</svg>
