<svg width="18" height="19" viewBox="0 0 18 19" fill="none" xmlns="http://www.w3.org/2000/svg">
<path fill-rule="evenodd" clip-rule="evenodd" d="M11.76 11.063L17.49 16.793L16 18.283L10.27 12.553C9.2 13.323 7.91 13.793 6.5 13.793C2.91 13.793 0 10.883 0 7.29297C0 3.70297 2.91 0.792969 6.5 0.792969C10.09 0.792969 13 3.70297 13 7.29297C13 8.70297 12.53 9.99297 11.76 11.063ZM6.5 2.79297C4.01 2.79297 2 4.80297 2 7.29297C2 9.78297 4.01 11.793 6.5 11.793C8.99 11.793 11 9.78297 11 7.29297C11 4.80297 8.99 2.79297 6.5 2.79297Z" fill="#49454F"/>
</svg>
